# xmcd CD database file
#
# Track frame offsets:
#	150
#	4474
#	11090
#	15970
#	26277
#	38330
#	45054
#	52726
#	54842
#	61591
#	62937
#	86120
#	91503
#	96953
#	101909
#	116187
#	122493
#	134367
#	144829
#	155788
#	163199
#	172528
#	180247
#	191193
#	206104
#	214078
#	221523
#	228113
#	234433
#	240659
#	245537
#	253908
#	261876
#	270721
#	281083
#	297855
#	304682
#	314864
#
# Disc length: 4354 seconds
#
# Revision: 0
# Processed by: cddbd v1.5.2PL0 Copyright (c) Steve Scherf et al.
# Submitted via: CDex 1.78
#
DISCID=0a110026
DTITLE=Sean Callery / 24 - Season 2 (Special Expanded Score) (Disc 1)
DYEAR=2002
DGENRE=Soundtrack
TTITLE0=Sean Callery / The Mole - A New Day
TTITLE1=Sean Callery / Remembering Teri
TTITLE2=Sean Callery / Kim's Theme
TTITLE3=Sean Callery / The Explosives
TTITLE4=Sean Callery / The Cougar
TTITLE5=Sean Callery / Wald's Crew
TTITLE6=Sean Callery / Jack's Back
TTITLE7=Sean Callery / The Hacksaw
TTITLE8=Sean Callery / Reza's Theme
TTITLE9=Sean Callery / The Translator
TTITLE10=Sean Callery / The Hunter
TTITLE11=Sean Callery / Alleyway Chase
TTITLE12=Sean Callery / The Intervention
TTITLE13=Sean Callery / The Involvement
TTITLE14=Sean Callery / The Evacuation
TTITLE15=Sean Callery / Paula's Death
TTITLE16=Sean Callery / Mason's Exposure
TTITLE17=Sean Callery / Indecisive Actions
TTITLE18=Sean Callery / The Last Man Out
TTITLE19=Sean Callery / Chlostrophobic
TTITLE20=Sean Callery / Hacking
TTITLE21=Sean Callery / Kate's Capture
TTITLE22=Sean Callery / A Real Hero
TTITLE23=Sean Callery / The Drug
TTITLE24=Sean Callery / Novick's Betrayal
TTITLE25=Sean Callery / The Decoy
TTITLE26=Sean Callery / The Rescue
TTITLE27=Sean Callery / Escorting Kate
TTITLE28=Sean Callery / The Airfield
TTITLE29=Sean Callery / The Bomb
TTITLE30=Sean Callery / The Detonation Pt.1
TTITLE31=Sean Callery / The Detonation Pt.2
TTITLE32=Sean Callery / The Fallout
TTITLE33=Sean Callery / The Man in Visalia
TTITLE34=Sean Callery / Almeida's Plan
TTITLE35=Sean Callery / The Crash
TTITLE36=Sean Callery / Splitting Up
TTITLE37=Sean Callery / The Pain
EXTD= YEAR: 2002
EXTT0=
EXTT1=
EXTT2=
EXTT3=
EXTT4=
EXTT5=
EXTT6=
EXTT7=
EXTT8=
EXTT9=
EXTT10=
EXTT11=
EXTT12=
EXTT13=
EXTT14=
EXTT15=
EXTT16=
EXTT17=
EXTT18=
EXTT19=
EXTT20=
EXTT21=
EXTT22=
EXTT23=
EXTT24=
EXTT25=
EXTT26=
EXTT27=
EXTT28=
EXTT29=
EXTT30=
EXTT31=
EXTT32=
EXTT33=
EXTT34=
EXTT35=
EXTT36=
EXTT37=
PLAYORDER=
